<?xml version="1.0" standalone="no"?>
<!DOCTYPE svg PUBLIC "-//W3C//DTD SVG 20010904//EN"
 "http://www.w3.org/TR/2001/REC-SVG-20010904/DTD/svg10.dtd">
<svg version="1.0" xmlns="http://www.w3.org/2000/svg"
 width="300.000000pt" height="300.000000pt" viewBox="0 0 300.000000 300.000000"
 preserveAspectRatio="xMidYMid meet">

<g transform="translate(0.000000,300.000000) scale(0.100000,-0.100000)"
fill="#000000" stroke="none">
<path d="M770 1900 c-23 -23 -25 -39 -7 -64 27 -36 97 -14 97 31 0 18 -37 53
-55 53 -8 0 -24 -9 -35 -20z"/>
<path d="M1440 1900 c-11 -11 -20 -27 -20 -35 0 -8 9 -24 20 -35 11 -11 27
-20 35 -20 18 0 55 35 55 53 0 22 -31 57 -51 57 -10 0 -28 -9 -39 -20z"/>
<path d="M498 1903 c-24 -3 -39 -10 -42 -21 -23 -82 -76 -370 -72 -388 4 -13
16 -33 29 -45 31 -29 121 -23 165 12 44 35 82 124 82 192 0 95 -29 128 -100
113 -20 -4 -30 -2 -30 7 1 13 17 90 26 120 3 10 0 16 -8 15 -7 -1 -30 -3 -50
-5z m90 -203 c27 -52 -17 -194 -63 -206 -50 -12 -55 10 -28 133 9 43 21 84 26
91 15 20 50 10 65 -18z"/>
<path d="M983 1903 c-24 -3 -34 -10 -38 -26 -3 -12 -20 -92 -39 -178 -38 -175
-46 -196 -82 -205 -44 -11 -48 5 -24 117 38 178 40 161 -16 157 l-48 -3 -22
-105 c-27 -126 -29 -178 -8 -208 21 -31 80 -30 128 3 l36 24 24 -24 c41 -41
131 -32 185 18 67 62 95 214 49 272 -19 24 -26 27 -66 22 l-44 -5 6 32 c18 84
19 116 5 114 -8 0 -29 -3 -46 -5z m88 -189 c35 -43 -7 -208 -57 -220 -30 -8
-44 2 -44 31 0 37 31 179 42 193 14 17 43 15 59 -4z"/>
<path d="M1290 1901 c-38 -7 -31 12 -85 -233 -31 -144 -32 -191 -5 -218 33
-33 112 -20 141 23 4 5 18 -3 32 -17 34 -34 80 -34 130 0 l38 25 31 -26 c28
-23 39 -27 81 -22 76 7 128 68 151 178 4 19 14 28 33 32 34 7 98 46 89 54 -3
3 -21 -2 -40 -11 -55 -26 -74 -21 -82 19 -14 77 -94 95 -174 40 -44 -31 -90
-122 -90 -179 0 -23 -7 -43 -20 -56 -23 -23 -58 -26 -66 -6 -3 8 6 68 20 132
14 65 26 121 26 126 0 5 -21 8 -47 6 l-46 -3 -27 -124 c-28 -127 -41 -151 -82
-151 -10 0 -21 6 -24 14 -3 7 13 98 35 201 23 103 41 192 41 197 0 9 -7 9 -60
-1z m456 -231 c3 -106 -33 -185 -81 -178 -18 3 -20 10 -19 73 1 95 42 180 84
172 11 -2 15 -18 16 -67z"/>
<path d="M2058 1902 c-14 -2 -29 -10 -32 -18 -13 -34 -76 -343 -76 -373 0 -21
9 -41 26 -58 22 -22 32 -25 79 -21 98 8 161 83 171 203 4 46 1 68 -13 95 -17
33 -21 35 -66 35 l-49 0 5 35 c3 19 9 52 13 72 7 40 11 38 -58 30z m92 -191
c24 -46 4 -158 -37 -203 -21 -23 -59 -23 -65 0 -9 33 34 211 51 215 32 9 40 7
51 -12z"/>
<path d="M2275 1630 l-28 -141 20 -27 c16 -21 28 -27 59 -26 22 0 47 4 57 8
12 6 17 4 17 -5 -1 -8 -20 -23 -43 -34 -106 -50 -77 -162 36 -141 44 8 84 60
94 119 4 29 13 41 37 54 45 23 86 71 86 102 0 18 -18 12 -25 -8 -7 -24 -54
-71 -70 -71 -10 0 7 100 50 288 5 20 2 22 -43 22 l-49 0 -24 -117 c-25 -124
-50 -172 -82 -160 -25 9 -22 36 28 255 5 20 2 22 -43 22 l-48 0 -29 -140z
m110 -267 c-8 -34 -23 -53 -40 -53 -25 0 -25 31 0 56 33 33 49 31 40 -3z"/>
<path d="M1804 1505 c-15 -23 -15 -27 0 -50 20 -30 56 -33 79 -7 21 23 22 46
1 66 -24 24 -61 20 -80 -9z"/>
<path d="M391 1145 c1 -22 3 -32 6 -22 2 9 8 17 13 17 5 0 11 -8 13 -17 3 -10
5 0 6 22 0 30 -2 36 -9 25 -9 -13 -11 -13 -20 0 -7 11 -9 5 -9 -25z"/>
<path d="M492 1145 c0 -22 2 -32 5 -22 2 9 8 17 13 17 5 0 11 -8 13 -17 3 -10
5 0 5 22 0 22 -2 32 -5 23 -2 -10 -8 -18 -13 -18 -5 0 -11 8 -13 18 -3 9 -5
-1 -5 -23z"/>
<path d="M587 1172 c-14 -22 1 -62 23 -62 17 0 20 6 18 38 -1 36 -1 36 -5 5
-2 -18 -8 -33 -13 -33 -5 0 -10 15 -12 33 -2 22 -6 28 -11 19z"/>
<path d="M681 1143 c2 -35 2 -35 6 -8 3 16 10 33 16 37 8 5 6 8 -5 8 -14 0
-18 -8 -17 -37z"/>
<path d="M762 1149 c2 -26 8 -34 23 -34 15 0 21 8 23 29 3 19 0 26 -8 21 -7
-4 -10 -16 -7 -26 3 -11 1 -19 -4 -19 -9 0 -13 14 -10 37 1 6 -3 15 -9 18 -8
5 -10 -4 -8 -26z"/>
<path d="M928 1175 c-9 -15 -7 -65 3 -65 5 0 9 7 9 15 0 8 5 15 11 15 6 0 9
-7 5 -15 -3 -8 -1 -15 4 -15 6 0 9 17 9 38 -1 20 -3 29 -6 20 -2 -10 -8 -18
-13 -18 -5 0 -10 8 -12 18 -2 9 -6 13 -10 7z"/>
<path d="M1033 1173 c21 -5 23 -23 2 -23 -8 0 -15 -9 -15 -20 0 -13 7 -20 20
-20 16 0 20 7 20 35 0 30 -3 35 -22 34 -17 -1 -19 -2 -5 -6z m17 -43 c0 -5 -4
-10 -10 -10 -5 0 -10 5 -10 10 0 6 5 10 10 10 6 0 10 -4 10 -10z"/>
<path d="M1180 1145 c0 -29 3 -36 18 -33 23 5 23 62 -1 66 -13 3 -17 -4 -17
-33z m30 -15 c0 -5 -4 -10 -10 -10 -5 0 -10 5 -10 10 0 6 5 10 10 10 6 0 10
-4 10 -10z"/>
<path d="M1277 1173 c-4 -3 -7 -19 -7 -35 0 -20 5 -28 18 -27 10 0 12 3 5 6
-19 7 -16 40 5 52 14 9 15 10 1 11 -9 0 -19 -3 -22 -7z"/>
<path d="M1354 1156 c-8 -32 2 -46 29 -45 17 1 18 2 5 6 -22 6 -24 23 -2 23
21 0 14 34 -8 38 -12 2 -19 -5 -24 -22z m31 4 c3 -5 1 -10 -4 -10 -6 0 -11 5
-11 10 0 6 2 10 4 10 3 0 8 -4 11 -10z"/>
<path d="M1514 1166 c-8 -22 -1 -49 14 -52 7 -1 8 0 2 3 -16 8 -12 41 8 52 16
10 16 10 -1 11 -10 0 -20 -6 -23 -14z"/>
<path d="M1610 1177 c0 -1 -4 -17 -9 -35 -5 -17 -6 -32 -1 -32 5 0 12 15 16
33 l8 32 7 -35 6 -35 2 38 c1 27 -3 37 -14 37 -8 0 -15 -1 -15 -3z"/>
<path d="M1697 1153 c4 -15 7 -38 8 -50 0 -36 14 -11 19 37 4 33 3 39 -3 20
-6 -16 -9 -19 -10 -8 -1 9 -6 20 -11 23 -7 5 -8 -3 -3 -22z"/>
<path d="M1792 1155 c0 -16 2 -22 5 -12 2 9 2 23 0 30 -3 6 -5 -1 -5 -18z"/>
<path d="M1819 1178 c-7 -24 -7 -58 1 -63 6 -4 10 8 10 29 0 20 -2 36 -5 36
-3 0 -5 -1 -6 -2z"/>
<path d="M1893 1173 c21 -5 23 -23 2 -23 -8 0 -15 -9 -15 -20 0 -13 7 -20 20
-20 16 0 20 7 20 35 0 30 -3 35 -22 34 -17 -1 -19 -2 -5 -6z m17 -43 c0 -5 -4
-10 -10 -10 -5 0 -10 5 -10 10 0 6 5 10 10 10 6 0 10 -4 10 -10z"/>
<path d="M1976 1172 c-13 -22 2 -62 24 -62 16 0 20 7 20 37 0 40 -7 41 -14 2
-7 -37 -8 -37 -15 1 -4 24 -9 31 -15 22z"/>
<path d="M2140 1180 c-1 -3 -3 -21 -5 -40 -3 -32 -2 -33 11 -15 14 19 14 19
14 -1 1 -19 1 -19 12 1 11 19 11 19 19 0 6 -15 8 -9 8 20 1 30 -2 36 -9 25 -9
-13 -11 -13 -20 0 -8 13 -10 12 -11 -5 l0 -20 -9 20 c-5 11 -9 18 -10 15z"/>
<path d="M2262 1148 c-2 -32 1 -38 18 -38 17 0 20 6 18 38 -1 36 -1 36 -5 5
-2 -18 -8 -33 -13 -33 -5 0 -11 15 -13 33 -4 31 -4 31 -5 -5z"/>
<path d="M2363 1173 c14 -4 16 -8 6 -19 -8 -10 -8 -14 0 -14 18 0 13 -18 -6
-23 -14 -4 -13 -5 4 -6 18 -1 21 4 20 34 -1 29 -5 35 -21 34 -18 -1 -18 -2 -3
-6z"/>
<path d="M2440 1145 c0 -36 1 -38 15 -19 13 18 14 18 15 1 0 -31 20 -8 20 24
0 30 -20 42 -20 12 -1 -16 -2 -16 -15 1 -14 19 -15 17 -15 -19z"/>
<path d="M2542 1148 c-2 -31 1 -38 17 -38 23 0 30 17 20 50 -7 23 -7 23 -8 -7
-1 -18 -5 -33 -10 -33 -6 0 -12 15 -14 33 -4 31 -4 31 -5 -5z"/>
</g>
</svg>
